<svg xmlns="http://www.w3.org/2000/svg" viewBox="0 0 24 24" width="24" height="24">
  <style>
    path {
      fill: none;
      stroke: #9c7830;
      stroke-width: 2;
      stroke-linecap: round;
      stroke-linejoin: round;
    }
    @media (prefers-color-scheme: dark) {
      path {
        stroke: #d3ac5c;
      }
    }
  </style>
  <path d="M19 7V4a1 1 0 0 0-1-1H5a2 2 0 0 0 0 4h15a1 1 0 0 1 1 1v4h-3a2 2 0 0 0 0 4h3a1 1 0 0 0 1-1v-2a1 1 0 0 0-1-1" />
  <path d="M3 5v14a2 2 0 0 0 2 2h15a1 1 0 0 0 1-1v-4" />
</svg>
